HIERARCHY
ROOT Hips
{
	OFFSET 0.000000 0.000000 0.000000
	CHANNELS 6 Xposition Yposition Zposition Zrotation Yrotation Xrotation 
	JOINT LHipJoint
	{
		OFFSET 0.000000 0.000000 0.000000
		CHANNELS 3 Zrotation Yrotation Xrotation
		JOINT LeftUpLeg
		{
			OFFSET 1.363060 -1.794630 0.839290
			CHANNELS 3 Zrotation Yrotation Xrotation
			JOINT LeftLeg
			{
				OFFSET 2.448110 -6.726130 0.000000
				CHANNELS 3 Zrotation Yrotation Xrotation
				JOINT LeftFoot
				{
					OFFSET 2.562200 -7.039590 0.000000
					CHANNELS 3 Zrotation Yrotation Xrotation
					JOINT LeftToeBase
					{
						OFFSET 0.157640 -0.433110 2.322550
						CHANNELS 3 Zrotation Yrotation Xrotation
						End Site
						{
							OFFSET 0.000000 0.000000 0.000000
						}
					}
				}
			}
		}
	}
	JOINT RHipJoint
	{
		OFFSET 0.000000 0.000000 0.000000
		CHANNELS 3 Zrotation Yrotation Xrotation
		JOINT RightUpLeg
		{
			OFFSET -1.305520 -1.794630 0.839290
			CHANNELS 3 Zrotation Yrotation Xrotation
			JOINT RightLeg
			{
				OFFSET -2.542530 -6.985550 0.000000
				CHANNELS 3 Zrotation Yrotation Xrotation
				JOINT RightFoot
				{
					OFFSET -2.568260 -7.056230 0.000000
					CHANNELS 3 Zrotation Yrotation Xrotation
					JOINT RightToeBase
					{
						OFFSET -0.164730 -0.452590 2.363150
						CHANNELS 3 Zrotation Yrotation Xrotation
						End Site
						{
							OFFSET 0.000000 0.000000 0.000000
						}
					}
				}
			}
		}
	}
	JOINT LowerBack
	{
		OFFSET 0.000000 0.000000 0.000000
		CHANNELS 3 Zrotation Yrotation Xrotation
		JOINT Spine
		{
			OFFSET 0.028270 2.035590 -0.193380
			CHANNELS 3 Zrotation Yrotation Xrotation
			JOINT Spine1
			{
				OFFSET 0.056720 2.048850 -0.042750
				CHANNELS 3 Zrotation Yrotation Xrotation
				JOINT Neck
				{
					OFFSET 0.000000 0.000000 0.000000
					CHANNELS 3 Zrotation Yrotation Xrotation
					JOINT Neck1
					{
						OFFSET -0.054170 1.746240 0.172020
						CHANNELS 3 Zrotation Yrotation Xrotation
						JOINT Head
						{
							OFFSET 0.104070 1.761360 -0.123970
							CHANNELS 3 Zrotation Yrotation Xrotation
							End Site
							{
								OFFSET 0.000000 0.000000 0.000000
							}
						}
					}
				}
				JOINT LeftShoulder
				{
					OFFSET 0.000000 0.000000 0.000000
					CHANNELS 3 Zrotation Yrotation Xrotation
					JOINT LeftArm
					{
						OFFSET 3.362410 1.200890 -0.311210
						CHANNELS 3 Zrotation Yrotation Xrotation
						JOINT LeftForeArm
						{
							OFFSET 4.983000 -0.000000 -0.000000
							CHANNELS 3 Zrotation Yrotation Xrotation
							JOINT LeftHand
							{
								OFFSET 3.483560 -0.000000 -0.000000
								CHANNELS 3 Zrotation Yrotation Xrotation
								JOINT LeftFingerBase
								{
									OFFSET 0.000000 0.000000 0.000000
									CHANNELS 3 Zrotation Yrotation Xrotation
									JOINT LeftHandIndex1
									{
										OFFSET 0.715260 -0.000000 -0.000000
										CHANNELS 3 Zrotation Yrotation Xrotation
										End Site
										{
											OFFSET 0.000000 0.000000 0.000000
										}
									}
								}
								JOINT LThumb
								{
									OFFSET 0.000000 0.000000 0.000000
									CHANNELS 3 Zrotation Yrotation Xrotation
									End Site
									{
										OFFSET 0.000000 0.000000 0.000000
									}
								}
							}
						}
					}
				}
				JOINT RightShoulder
				{
					OFFSET 0.000000 0.000000 0.000000
					CHANNELS 3 Zrotation Yrotation Xrotation
					JOINT RightArm
					{
						OFFSET -3.136600 1.374050 -0.404650
						CHANNELS 3 Zrotation Yrotation Xrotation
						JOINT RightForeArm
						{
							OFFSET -5.241900 -0.000000 -0.000000
							CHANNELS 3 Zrotation Yrotation Xrotation
							JOINT RightHand
							{
								OFFSET -3.444170 -0.000000 -0.000000
								CHANNELS 3 Zrotation Yrotation Xrotation
								JOINT RightFingerBase
								{
									OFFSET 0.000000 0.000000 0.000000
									CHANNELS 3 Zrotation Yrotation Xrotation
									JOINT RightHandIndex1
									{
										OFFSET -0.622530 -0.000000 -0.000000
										CHANNELS 3 Zrotation Yrotation Xrotation
										End Site
										{
											OFFSET 0.000000 0.000000 0.000000
										}
									}
								}
								JOINT RThumb
								{
									OFFSET 0.000000 0.000000 0.000000
									CHANNELS 3 Zrotation Yrotation Xrotation
									End Site
									{
										OFFSET 0.000000 0.000000 0.000000
									}
								}
							}
						}
					}
				}
			}
		}
	}
}
MOTION
Frames: 11
Frame Time: 0.008333
-14.594035 18.038226 2.473601 -46.924041 -74.987645 51.036277 -4.245620 -2.308456 -0.359074 -15.286618 5.153920 -32.875861 2.950194 12.863223 38.077854 -1.865888 9.999344 3.604255 0.710700 -5.388000 -15.018500 0.762090 -1.389138 1.665196 33.274165 -10.195567 -20.142857 -6.204409 -14.744770 49.796601 -1.328798 13.281035 17.048103 -0.713300 5.397400 -15.045500 0.929949 0.054861 12.682037 0.670230 0.266695 2.392366 -1.702037 0.188893 -4.532906 -5.286975 -4.906298 -2.337594 7.552784 -8.100820 17.798009 1.448100 -3.599600 3.053800 -1.238739 -7.221999 3.007561 -59.023350 4.598305 -21.140410 14.780759 -20.891885 -3.780907 -0.398426 0.712215 21.234851 36.770061 21.401008 15.039800 -7.125000 0.000000 0.000000 9.657000 55.007600 2.389800 5.407945 6.914919 1.342842 74.647085 0.428443 18.759562 -16.293206 22.465282 -4.477324 2.141050 -0.400492 41.525463 -42.514215 -34.103876 28.968600 7.125000 0.000000 0.000000 -20.486700 -72.927200 13.725300 
-14.444513 17.991650 2.499687 -47.841019 -75.293057 52.319130 -4.248271 -2.449810 -0.384435 -17.237837 7.795235 -34.621162 2.775703 12.732304 37.542914 -2.137823 11.142292 1.868614 0.473100 -4.411100 -12.236200 0.834840 -1.419198 1.714303 34.547587 -11.279105 -19.387982 -5.289819 -13.918994 46.280214 -1.410560 11.311082 19.388296 -0.749200 5.528700 -15.422800 1.279869 -0.215693 12.522770 0.811061 -0.044025 2.265016 -1.641991 0.046338 -4.719327 -6.208788 -5.684056 -1.716996 7.492344 -9.124362 16.671725 1.586600 -4.182800 2.654700 -1.183763 -7.335552 2.877062 -62.230055 5.251538 -17.734264 15.445607 -21.740126 -3.995078 -0.418383 0.678653 16.551728 36.894000 21.108915 14.887000 -7.125000 0.000000 0.000000 9.764500 54.679500 2.338500 5.384903 6.903212 1.333647 75.445991 1.438801 18.853108 -16.217654 22.285977 -4.421257 2.138660 -0.392657 40.929001 -42.179036 -33.775558 28.484900 7.125000 0.000000 0.000000 -19.742100 -72.458100 13.016500 
-14.289195 17.939777 2.530071 -48.581024 -75.657152 53.401061 -4.234353 -2.571322 -0.464785 -18.514670 9.199903 -35.969180 2.664305 12.630116 37.132826 -2.143484 11.208451 2.111974 1.042900 -6.494700 -18.226600 0.906513 -1.443185 1.786683 35.038520 -10.673595 -17.863347 -4.372215 -12.998368 42.633787 -1.491414 10.496845 20.989578 -0.037500 1.250100 -3.437200 1.665261 -0.474103 12.416602 0.966725 -0.337029 2.160288 -1.585366 -0.084891 -4.888883 -7.250517 -6.480096 -0.720802 7.534046 -10.231637 14.968910 1.813800 -4.816300 2.029800 -1.129113 -7.474264 2.749492 -65.537179 5.621066 -14.173705 16.184414 -22.635185 -4.223560 -0.423350 0.651209 11.820036 36.616146 20.228246 14.131400 -7.125000 0.000000 0.000000 9.417300 53.568500 1.998100 5.353652 6.864983 1.322632 76.106034 2.313496 19.252983 -16.308687 22.323793 -4.440283 2.131617 -0.386182 40.326355 -42.133265 -33.435041 28.229600 7.125000 0.000000 0.000000 -19.610700 -72.055200 12.757200 
-14.121283 17.848225 2.563554 -48.691666 -76.114618 53.935646 -4.260351 -2.696180 -0.575810 -19.180217 9.298811 -36.690651 2.566641 12.579565 36.966372 -1.889162 9.935027 1.448369 0.747000 -5.520600 -15.399600 1.012093 -1.447931 1.907010 35.037747 -9.516832 -15.815452 -3.672544 -12.189115 39.663095 -1.315911 12.570919 13.953430 -0.237600 3.137300 -8.661300 2.075827 -0.712282 12.279633 1.103902 -0.602313 2.067995 -1.588905 -0.205176 -5.021049 -8.247531 -7.308307 0.218789 7.553277 -11.394307 13.070549 2.052000 -5.463300 1.375300 -1.078199 -7.612734 2.619854 -68.856812 5.568631 -10.542857 16.913766 -23.486094 -4.451095 -0.420605 0.630936 7.274137 36.315985 18.994301 13.132200 -7.125000 0.000000 0.000000 9.052600 52.034800 1.578600 5.324338 6.837222 1.324382 76.526610 3.317325 19.887912 -16.398259 22.372612 -4.467280 2.135175 -0.375520 39.925629 -42.131086 -33.397654 28.204900 7.125000 0.000000 0.000000 -19.608000 -72.009800 12.736100 
-13.940778 17.726489 2.593838 -47.221323 -76.775803 52.776799 -4.336878 -2.803869 -0.706981 -19.403808 8.220891 -36.919630 2.577551 12.664978 37.276633 -1.450970 7.796624 0.833121 0.367000 -3.891200 -10.770800 1.111683 -1.449706 2.028314 34.497504 -8.308892 -14.002264 -3.192515 -11.548253 37.233540 -1.608197 14.845038 4.748178 -2.791600 10.349800 -30.117000 2.137830 -0.979193 12.386452 1.211445 -0.954567 2.018464 -1.455399 -0.363109 -5.207486 -9.247856 -8.054727 0.944048 7.664184 -12.478197 11.252384 2.332000 -6.050000 0.805100 -1.027521 -7.747479 2.485802 -72.226473 5.273431 -6.940012 17.758660 -24.442776 -4.725864 -0.409886 0.612601 3.342867 35.677537 17.777726 12.015100 -7.125000 0.000000 0.000000 8.338400 50.469400 1.130800 5.297330 6.824405 1.343458 76.650786 4.493159 20.942450 -16.445240 22.375081 -4.480038 2.145248 -0.358066 39.635532 -41.974598 -33.596068 28.203500 7.125000 0.000000 0.000000 -19.312700 -72.187400 12.614400 
-13.743981 17.569872 2.612428 -45.330663 -77.441957 50.908340 -4.361867 -2.871781 -0.828446 -19.568354 7.176833 -37.255810 2.736618 12.873375 38.027391 -0.975418 5.375661 1.323265 0.314500 -3.604900 -9.967700 1.128297 -1.449822 2.085129 33.750465 -6.594306 -12.762356 -2.821229 -11.095330 35.536156 -1.792103 14.546536 1.724472 -1.377400 7.426800 -20.986200 2.061779 -1.250585 12.899555 1.320431 -1.331622 2.095289 -1.233017 -0.528241 -5.393433 -10.087998 -8.778475 1.425982 7.862860 -13.536855 9.476372 2.615800 -6.605600 0.294800 -0.979055 -7.875890 2.358538 -75.405199 4.614482 -3.403823 18.706975 -25.477005 -5.036061 -0.391444 0.592393 0.786924 34.099277 16.947914 10.828000 -7.125000 0.000000 0.000000 6.693400 49.230900 0.701200 5.283343 6.834067 1.382264 76.575188 6.000905 22.156994 -16.317126 22.152068 -4.423035 2.159143 -0.365013 39.870584 -41.770169 -33.792789 28.165500 7.125000 0.000000 0.000000 -18.930400 -72.347100 12.424900 
-13.532192 17.461129 2.630718 -43.210675 -78.048070 48.590880 -4.334448 -2.902453 -0.930927 -19.813686 6.584336 -37.808256 3.007869 13.172708 39.108904 -0.556504 3.003854 2.679969 0.207300 -2.931400 -8.087700 1.119728 -1.435366 2.113301 33.215936 -5.715543 -12.070533 -2.644248 -10.887660 34.683274 -1.990987 13.400215 -1.915275 -1.001300 6.367800 -17.855500 2.040484 -1.499651 13.820634 1.382499 -1.677374 2.287985 -1.110634 -0.678245 -5.617412 -10.744767 -9.584552 1.656444 8.123082 -14.687526 7.839888 2.878600 -7.194700 -0.118700 -0.939543 -7.992490 2.241652 -78.206737 3.522526 0.156842 19.616490 -26.441171 -5.354440 -0.352714 0.586057 0.174934 32.662813 16.175895 9.801500 -7.125000 0.000000 0.000000 5.246000 48.112100 0.403800 5.281215 6.870038 1.434397 76.452942 7.750204 23.080035 -16.014489 21.693968 -4.294251 2.165693 -0.411716 41.155094 -41.245447 -34.017186 27.880000 7.125000 0.000000 0.000000 -17.886100 -72.440100 11.762600 
-13.309309 17.389766 2.652507 -40.005217 -78.683018 45.244462 -4.237144 -2.917295 -1.052842 -20.518865 6.452009 -39.004122 3.442621 13.635482 40.761997 -0.276358 1.151998 4.629678 0.208000 -2.936700 -8.102500 1.091058 -1.391678 2.130171 32.591345 -5.040429 -11.748302 -2.473488 -10.719344 33.984104 -2.062074 11.292495 -5.054179 -1.090700 6.637000 -18.644200 1.841243 -1.711708 15.158006 1.399931 -2.013381 2.374889 -0.943228 -0.812805 -6.203928 -11.910468 -10.255828 1.799608 9.152175 -15.802245 6.581763 3.462800 -7.774000 -0.262500 -0.910725 -8.143325 2.131167 -80.748780 2.432113 3.898898 20.535963 -27.423975 -5.729010 -0.300756 0.593816 1.305227 32.114198 15.745032 9.336900 -7.125000 0.000000 0.000000 4.690800 47.532600 0.293700 5.263874 6.867322 1.466808 76.241581 9.311494 23.743976 -15.692369 21.194995 -4.151445 2.140123 -0.496182 43.418214 -40.219049 -34.081839 27.078200 7.125000 0.000000 0.000000 -15.808000 -72.193100 10.290600 
-13.084927 17.352086 2.675095 -33.363079 -79.689607 38.704185 -4.168777 -2.898263 -1.152747 -21.994834 6.457425 -40.610429 3.909920 14.142091 42.559672 -0.068844 -0.454280 7.230463 0.333600 -3.712000 -10.267800 1.037654 -1.273256 2.096181 31.224661 -4.214921 -12.029391 -2.388620 -10.701546 33.823977 -1.966055 8.701833 -7.464572 -1.429800 7.560800 -21.387900 0.822805 -1.784181 16.680867 1.289636 -2.343977 2.332898 -0.510386 -0.911646 -7.032544 -13.381077 -10.755206 2.009160 10.830670 -16.805148 5.397136 4.323000 -8.311800 -0.278600 -0.886673 -8.300449 2.034245 -82.955402 1.592350 8.211719 21.738378 -28.723596 -6.276481 -0.237888 0.601093 3.189591 31.948680 15.499266 9.123100 -7.125000 0.000000 0.000000 4.501100 47.227500 0.247900 5.224212 6.820491 1.475974 75.695812 10.322776 25.199770 -15.530269 20.914185 -4.066174 2.085582 -0.570569 44.962625 -39.301410 -33.594734 26.035000 7.125000 0.000000 0.000000 -14.070100 -71.348800 8.885700 
-12.870340 17.321402 2.695584 -38.756500 -78.195224 44.753803 -3.541862 -2.945587 -1.486812 -20.025434 5.733059 -42.490242 4.425021 14.546605 44.227393 0.216166 -2.814285 10.722603 0.785500 -5.658100 -15.795600 1.081250 -1.198444 2.118420 33.349321 -3.253419 -13.207174 -2.255116 -10.660995 33.522955 -1.692375 6.737574 -8.168866 -1.234400 7.045700 -19.850900 3.342708 -2.266679 17.274041 1.793671 -2.475053 2.195196 -1.082602 -1.027906 -7.525051 -13.715394 -11.280253 2.475515 11.992193 -17.692450 3.631691 4.383400 -8.797800 -0.615600 -0.844220 -8.423873 1.981656 -84.560481 1.004242 13.166142 23.479741 -30.567732 -7.137489 -0.158066 0.599483 4.578866 32.258260 14.761441 8.772000 -7.125000 0.000000 0.000000 4.777300 46.427600 0.168700 5.210418 6.764375 1.485909 75.096029 11.156101 26.342782 -15.591908 20.924562 -4.065976 2.005895 -0.645398 46.019574 -38.758067 -32.583823 24.975200 7.125000 0.000000 0.000000 -13.201100 -70.012800 7.940700 
-12.680340 17.334295 2.713475 -39.285117 -77.574139 45.758101 -3.159488 -2.927025 -1.699517 -18.453281 4.430921 -43.546685 4.816419 14.876544 45.598152 0.553433 -5.780534 16.112067 0.305900 -3.556000 -9.830800 1.078292 -1.104162 2.105073 33.923550 -2.815627 -14.216928 -2.138717 -10.569103 33.132741 -1.581571 5.950157 -8.410904 -1.052300 6.522800 -18.309200 4.431812 -2.620375 17.767604 1.971183 -2.714236 2.151471 -1.390632 -1.182799 -7.820804 -12.680141 -12.004750 3.257784 10.932038 -18.544302 2.140348 4.525000 -9.196000 -1.487400 -0.795527 -8.379072 1.963644 -85.540963 0.773462 18.308019 25.751763 -32.872299 -8.351400 -0.074332 0.584847 5.346325 32.653631 13.817316 8.313800 -7.125000 0.000000 0.000000 5.120300 45.404500 0.051300 5.212871 6.840523 1.542842 74.448496 11.745785 27.638842 -15.827747 21.190798 -4.150285 1.960851 -0.670073 46.061733 -38.779640 -31.958410 24.589800 7.125000 0.000000 0.000000 -13.304400 -69.287600 7.788200 
